<svg width="35" height="35" viewBox="0 0 35 35" fill="none" xmlns="http://www.w3.org/2000/svg">
<path fill-rule="evenodd" clip-rule="evenodd" d="M0 6.875C0 4.80393 1.67893 3.125 3.75 3.125H31.25C33.321 3.125 35 4.80393 35 6.875V7.72987L18.4585 18.7595C18.2252 18.9095 17.8866 19.0166 17.5 19.0166C17.1134 19.0166 16.7748 18.9095 16.5415 18.7595L0 7.7299V6.875ZM0 11.4859V28.125C0 30.196 1.67893 31.875 3.75 31.875H31.25C33.321 31.875 35 30.196 35 28.125V11.4858L20.1691 21.3749C19.3825 21.8869 18.4378 22.1416 17.5 22.1416C16.5621 22.1416 15.6176 21.8868 14.8309 21.3748L14.8164 21.3653L0 11.4859Z" fill="black"/>
</svg>
