<svg width="61" height="58" viewBox="0 0 61 58" fill="none" xmlns="http://www.w3.org/2000/svg">
<path d="M50.8333 40.9961V46.1411C50.8333 46.7501 50.6052 47.2677 50.149 47.6939C49.6928 48.1202 49.1388 48.3333 48.4871 48.3333H12.5128C11.8611 48.3333 11.3071 48.1202 10.8509 47.6939C10.3947 47.2677 10.1666 46.7501 10.1666 46.1411V40.9961C10.1666 40.3872 10.3947 39.8696 10.8509 39.4433C11.3071 39.017 11.8611 38.8039 12.5128 38.8039H21.2027C22.2543 38.8039 23.1491 39.4758 23.8582 40.2201C24.0962 40.4699 24.3672 40.6982 24.6712 40.9048C25.4777 41.4528 26.3779 41.7268 27.3718 41.7268H33.6282C34.622 41.7268 35.5222 41.4528 36.3287 40.9048C36.6327 40.6982 36.9037 40.4699 37.1418 40.2201C37.8508 39.4758 38.7456 38.8039 39.7973 38.8039H48.4871C49.1388 38.8039 49.6928 39.017 50.149 39.4433C50.6052 39.8696 50.8333 40.3872 50.8333 40.9961ZM42.572 19.4897C42.2951 20.0987 41.8144 20.4032 41.1301 20.4032H34.8737V30.6334C34.8737 31.0292 34.7189 31.3717 34.4094 31.661C34.0998 31.9502 33.7332 32.0949 33.3096 32.0949H27.0532C26.6296 32.0949 26.263 31.9502 25.9535 31.661C25.6439 31.3717 25.4891 31.0292 25.4891 30.6334V20.4032H19.2327C18.5484 20.4032 18.0678 20.0987 17.7908 19.4897C17.5138 18.896 17.6279 18.3708 18.1329 17.9141L29.0817 7.68387C29.3749 7.39462 29.7415 7.25 30.1814 7.25C30.6213 7.25 30.9879 7.39462 31.2812 7.68387L42.2299 17.9141C42.735 18.3708 42.849 18.896 42.572 19.4897Z" stroke="black" stroke-width="2" stroke-linejoin="round"/>
</svg>
