<svg width="209" height="83" viewBox="0 0 209 83" fill="none" xmlns="http://www.w3.org/2000/svg">
<path d="M9.0918 16.1758C7.36654 16.1758 5.8724 15.8828 4.60938 15.2969C3.35286 14.7109 2.37956 13.8353 1.68945 12.6699C1.00586 11.5046 0.664062 10.056 0.664062 8.32422C0.664062 6.59896 0.999349 5.17969 1.66992 4.06641C2.34701 2.95312 3.31055 2.1263 4.56055 1.58594C5.81055 1.04557 7.29492 0.775391 9.01367 0.775391C10.2572 0.775391 11.3737 0.886068 12.3633 1.10742C13.3529 1.32878 14.2611 1.62826 15.0879 2.00586V6.86914H12.1484C11.888 6.39388 11.5658 5.98698 11.1816 5.64844C10.7975 5.30339 10.332 5.13086 9.78516 5.13086C9.10807 5.13086 8.54492 5.27409 8.0957 5.56055C7.65299 5.84701 7.32096 6.2181 7.09961 6.67383C6.88477 7.12956 6.77734 7.61133 6.77734 8.11914C6.77734 8.93945 6.94336 9.58724 7.27539 10.0625C7.61393 10.5378 8.0599 10.8763 8.61328 11.0781C9.17318 11.2734 9.78841 11.3711 10.459 11.3711C11.2337 11.3711 12.0312 11.2767 12.8516 11.0879C13.6719 10.8926 14.4173 10.668 15.0879 10.4141V15.1797C14.1634 15.4922 13.2161 15.7363 12.2461 15.9121C11.276 16.0879 10.2246 16.1758 9.0918 16.1758ZM24.248 16.1758C22.5814 16.1758 21.1328 15.9219 19.9023 15.4141C18.6719 14.9062 17.7181 14.1185 17.041 13.0508C16.3704 11.9831 16.0352 10.6126 16.0352 8.93945C16.0352 7.29883 16.3802 5.96094 17.0703 4.92578C17.7604 3.88411 18.7207 3.11589 19.9512 2.62109C21.1882 2.1263 22.6204 1.87891 24.248 1.87891C25.8757 1.87891 27.3079 2.1263 28.5449 2.62109C29.7819 3.11589 30.7454 3.88411 31.4355 4.92578C32.1322 5.96094 32.4805 7.29883 32.4805 8.93945C32.4805 10.6126 32.1452 11.9831 31.4746 13.0508C30.804 14.1185 29.8535 14.9062 28.623 15.4141C27.3926 15.9219 25.9342 16.1758 24.248 16.1758ZM24.248 11.918C25.1595 11.918 25.7812 11.6445 26.1133 11.0977C26.4453 10.5508 26.6113 9.83138 26.6113 8.93945C26.6113 8.04753 26.4421 7.34115 26.1035 6.82031C25.7715 6.29948 25.153 6.03906 24.248 6.03906C23.3626 6.03906 22.7507 6.29297 22.4121 6.80078C22.0801 7.30859 21.9141 8.00521 21.9141 8.89062C21.9141 9.79557 22.0703 10.528 22.3828 11.0879C22.7018 11.6413 23.3236 11.918 24.248 11.918ZM33.3008 16V12.1035L34.4727 11.8789V6.32227L33.3008 6.09766V2.25H40.3418L43.3008 7.50391L46.2305 2.25H53.2715V6.09766L52.0996 6.32227V11.8789L53.2715 12.1035V16H46.2305V9.27148L43.3008 14.2324L40.3418 9.27148V16H33.3008ZM54.6094 16V12.1035L55.7812 11.8789V6.32227L54.6094 6.09766V2.25H61.6504L64.6094 7.50391L67.5391 2.25H74.5801V6.09766L73.4082 6.32227V11.8789L74.5801 12.1035V16H67.5391V9.27148L64.6094 14.2324L61.6504 9.27148V16H54.6094ZM84.5703 16.1758C82.1549 16.1758 80.2799 15.5801 78.9453 14.3887C77.6107 13.1908 76.9434 11.3743 76.9434 8.93945V6.32227L75.7715 6.09766V2.25H83.3984V6.09766L82.2266 6.32227V7.95312C82.2266 8.08984 82.2266 8.22656 82.2266 8.36328C82.2331 8.5 82.2363 8.63021 82.2363 8.75391V8.95898C82.2363 9.83789 82.4023 10.5345 82.7344 11.0488C83.0729 11.5632 83.6849 11.8203 84.5703 11.8203C85.4622 11.8203 86.0775 11.5632 86.416 11.0488C86.7611 10.528 86.9336 9.82487 86.9336 8.93945V8.71484C86.9336 8.59766 86.9303 8.47396 86.9238 8.34375C86.9238 8.20703 86.9238 8.07031 86.9238 7.93359V6.32227L85.752 6.09766V2.25H92.5293V6.09766L91.3477 6.32227C91.3411 6.41992 91.3379 6.51758 91.3379 6.61523C91.3379 6.70638 91.3379 6.79753 91.3379 6.88867V8.93945C91.3379 11.2311 90.7747 13.0117 89.6484 14.2812C88.5221 15.5443 86.8294 16.1758 84.5703 16.1758ZM93.7305 16V12.1035L94.9023 11.8789V6.32227L93.7305 6.09766V2.25H100.781L105.479 9.66211V6.3418L104.307 6.09766V2.25H110.176V6.09766L109.004 6.32227V11.8789L110.176 12.1035V16H103.125L98.4277 8.7832V11.8789L99.6094 12.0938V16H93.7305ZM111.504 16V12.1035L112.676 11.8789V6.32227L111.504 6.09766V2.25H119.727V6.09766L118.555 6.32227V11.8789L119.727 12.1035V16H111.504ZM128.525 16.1758C126.911 16.1758 125.508 15.9121 124.316 15.3848C123.132 14.8509 122.217 14.0501 121.572 12.9824C120.928 11.9082 120.605 10.5605 120.605 8.93945C120.605 7.31836 120.921 5.98698 121.553 4.94531C122.191 3.90365 123.096 3.13216 124.268 2.63086C125.446 2.12956 126.842 1.87891 128.457 1.87891C129.622 1.87891 130.671 1.98307 131.602 2.19141C132.539 2.39323 133.392 2.66667 134.16 3.01172V7.25977H131.396C131.149 6.91471 130.846 6.61849 130.488 6.37109C130.137 6.1237 129.701 6 129.18 6C128.359 6 127.705 6.2832 127.217 6.84961C126.735 7.40951 126.494 8.10612 126.494 8.93945C126.494 9.94857 126.751 10.6973 127.266 11.1855C127.78 11.6673 128.535 11.9082 129.531 11.9082C130.358 11.9082 131.143 11.8203 131.885 11.6445C132.633 11.4688 133.392 11.2669 134.16 11.0391V15.2871C132.22 15.8796 130.342 16.1758 128.525 16.1758ZM135.391 16V11.4688L136.523 11.2441L139.229 2.25H146.807L149.531 11.2441L150.654 11.4688V16H145.43L144.941 13.6855H141.104L140.615 16H135.391ZM141.699 10.5996H144.346L143.018 5.19922L141.699 10.5996ZM153.506 16V12.1035L154.678 11.8789V5.88281C154.359 5.88281 154.036 5.9349 153.711 6.03906C153.392 6.14323 153.125 6.29622 152.91 6.49805C152.695 6.69987 152.588 6.95052 152.588 7.25H150.957V2.25H164.277V7.25H162.646C162.646 6.95052 162.536 6.69987 162.314 6.49805C162.1 6.29622 161.833 6.14323 161.514 6.03906C161.195 5.9349 160.876 5.88281 160.557 5.88281V11.8789L161.729 12.1035V16H153.506ZM165.547 16V12.1035L166.719 11.8789V6.32227L165.547 6.09766V2.25H173.77V6.09766L172.598 6.32227V11.8789L173.77 12.1035V16H165.547ZM182.861 16.1758C181.195 16.1758 179.746 15.9219 178.516 15.4141C177.285 14.9062 176.331 14.1185 175.654 13.0508C174.984 11.9831 174.648 10.6126 174.648 8.93945C174.648 7.29883 174.993 5.96094 175.684 4.92578C176.374 3.88411 177.334 3.11589 178.564 2.62109C179.801 2.1263 181.234 1.87891 182.861 1.87891C184.489 1.87891 185.921 2.1263 187.158 2.62109C188.395 3.11589 189.359 3.88411 190.049 4.92578C190.745 5.96094 191.094 7.29883 191.094 8.93945C191.094 10.6126 190.758 11.9831 190.088 13.0508C189.417 14.1185 188.467 14.9062 187.236 15.4141C186.006 15.9219 184.548 16.1758 182.861 16.1758ZM182.861 11.918C183.773 11.918 184.395 11.6445 184.727 11.0977C185.059 10.5508 185.225 9.83138 185.225 8.93945C185.225 8.04753 185.055 7.34115 184.717 6.82031C184.385 6.29948 183.766 6.03906 182.861 6.03906C181.976 6.03906 181.364 6.29297 181.025 6.80078C180.693 7.30859 180.527 8.00521 180.527 8.89062C180.527 9.79557 180.684 10.528 180.996 11.0879C181.315 11.6413 181.937 11.918 182.861 11.918ZM191.914 16V12.1035L193.086 11.8789V6.32227L191.914 6.09766V2.25H198.965L203.662 9.66211V6.3418L202.49 6.09766V2.25H208.359V6.09766L207.188 6.32227V11.8789L208.359 12.1035V16H201.309L196.611 8.7832V11.8789L197.793 12.0938V16H191.914ZM5.6543 49.0098L1.9043 39.3125L0.507812 39.0977V35.25H9.42383V39.0977L8.4082 39.3125L10 44.4297L11.5918 39.3125L10.5762 39.0977V35.25H19.4922V39.0977L18.4863 39.3125L20.0684 44.4297L21.6602 39.3125L20.6445 39.0977V35.2012H27.4023V39.0977L26.0156 39.3125L22.2656 49.0098H15.7324L13.9551 43.7266L12.1973 49.0098H5.6543ZM28.6328 49V45.1035L29.8047 44.8789V39.3223L28.6328 39.0977V35.25H36.8555V39.0977L35.6836 39.3223V44.8789L36.8555 45.1035V49H28.6328ZM40.6543 49V45.1035L41.8262 44.8789V38.8828C41.5072 38.8828 41.1849 38.9349 40.8594 39.0391C40.5404 39.1432 40.2734 39.2962 40.0586 39.498C39.8438 39.6999 39.7363 39.9505 39.7363 40.25H38.1055V35.25H51.4258V40.25H49.7949C49.7949 39.9505 49.6842 39.6999 49.4629 39.498C49.248 39.2962 48.9811 39.1432 48.6621 39.0391C48.3431 38.9349 48.0241 38.8828 47.7051 38.8828V44.8789L48.877 45.1035V49H40.6543ZM52.6953 49V45.1035L53.8672 44.8789V39.3418L52.6953 39.1172V35.25H60.918V39.1172L59.7461 39.3418V40.9531H64.4434V39.3418L63.2715 39.1172V35.2012H71.4941V39.1172L70.3223 39.3418V44.8789L71.4941 45.1035V49H63.2715V45.1035L64.4434 44.8789V43.248H59.7461V44.8789L60.918 45.1035V49H52.6953ZM80.5762 49.1758C78.9095 49.1758 77.4609 48.9219 76.2305 48.4141C75 47.9062 74.0462 47.1185 73.3691 46.0508C72.6986 44.9831 72.3633 43.6126 72.3633 41.9395C72.3633 40.2988 72.7083 38.9609 73.3984 37.9258C74.0885 36.8841 75.0488 36.1159 76.2793 35.6211C77.5163 35.1263 78.9486 34.8789 80.5762 34.8789C82.2038 34.8789 83.6361 35.1263 84.873 35.6211C86.11 36.1159 87.0736 36.8841 87.7637 37.9258C88.4603 38.9609 88.8086 40.2988 88.8086 41.9395C88.8086 43.6126 88.4733 44.9831 87.8027 46.0508C87.1322 47.1185 86.1816 47.9062 84.9512 48.4141C83.7207 48.9219 82.2624 49.1758 80.5762 49.1758ZM80.5762 44.918C81.4876 44.918 82.1094 44.6445 82.4414 44.0977C82.7734 43.5508 82.9395 42.8314 82.9395 41.9395C82.9395 41.0475 82.7702 40.3411 82.4316 39.8203C82.0996 39.2995 81.4811 39.0391 80.5762 39.0391C79.6908 39.0391 79.0788 39.293 78.7402 39.8008C78.4082 40.3086 78.2422 41.0052 78.2422 41.8906C78.2422 42.7956 78.3984 43.528 78.7109 44.0879C79.0299 44.6413 79.6517 44.918 80.5762 44.918ZM98.2617 49.1758C95.8464 49.1758 93.9714 48.5801 92.6367 47.3887C91.3021 46.1908 90.6348 44.3743 90.6348 41.9395V39.3223L89.4629 39.0977V35.25H97.0898V39.0977L95.918 39.3223V40.9531C95.918 41.0898 95.918 41.2266 95.918 41.3633C95.9245 41.5 95.9277 41.6302 95.9277 41.7539V41.959C95.9277 42.8379 96.0938 43.5345 96.4258 44.0488C96.7643 44.5632 97.3763 44.8203 98.2617 44.8203C99.1536 44.8203 99.7689 44.5632 100.107 44.0488C100.452 43.528 100.625 42.8249 100.625 41.9395V41.7148C100.625 41.5977 100.622 41.474 100.615 41.3438C100.615 41.207 100.615 41.0703 100.615 40.9336V39.3223L99.4434 39.0977V35.25H106.221V39.0977L105.039 39.3223C105.033 39.4199 105.029 39.5176 105.029 39.6152C105.029 39.7064 105.029 39.7975 105.029 39.8887V41.9395C105.029 44.2311 104.466 46.0117 103.34 47.2812C102.214 48.5443 100.521 49.1758 98.2617 49.1758ZM109.893 49V45.1035L111.064 44.8789V38.8828C110.745 38.8828 110.423 38.9349 110.098 39.0391C109.779 39.1432 109.512 39.2962 109.297 39.498C109.082 39.6999 108.975 39.9505 108.975 40.25H107.344V35.25H120.664V40.25H119.033C119.033 39.9505 118.923 39.6999 118.701 39.498C118.486 39.2962 118.219 39.1432 117.9 39.0391C117.581 38.9349 117.262 38.8828 116.943 38.8828V44.8789L118.115 45.1035V49H109.893ZM0.625 82V78.1035L1.79688 77.8789V71.9902L0.625 71.7656V68.25H12.4805C13.3333 68.4518 14.0267 68.7871 14.5605 69.2559C15.0944 69.7246 15.3613 70.4473 15.3613 71.4238C15.3613 71.7624 15.3255 72.1302 15.2539 72.5273C15.1888 72.9245 15.0618 73.3021 14.873 73.6602C14.6842 74.0117 14.4141 74.3079 14.0625 74.5488C13.7109 74.7832 13.252 74.9134 12.6855 74.9395C13.3366 74.972 13.9355 75.0892 14.4824 75.291C15.0293 75.4863 15.4688 75.7923 15.8008 76.209C16.1328 76.6257 16.2988 77.1823 16.2988 77.8789C16.2988 78.8945 16.097 79.7051 15.6934 80.3105C15.2962 80.9095 14.7233 81.3424 13.9746 81.6094C13.2259 81.8698 12.3275 82 11.2793 82H0.625ZM7.67578 73.9727H8.53516C9.14062 73.9727 9.60612 73.888 9.93164 73.7188C10.2572 73.543 10.4199 73.1458 10.4199 72.5273C10.4199 71.9414 10.2507 71.5736 9.91211 71.4238C9.57357 71.2741 9.11458 71.1992 8.53516 71.1992H7.67578V73.9727ZM7.67578 78.6602H8.53516C9.14062 78.6602 9.60612 78.5723 9.93164 78.3965C10.2572 78.2207 10.4199 77.8236 10.4199 77.2051C10.4199 76.6191 10.2507 76.2546 9.91211 76.1113C9.57357 75.9616 9.11458 75.8867 8.53516 75.8867H7.67578V78.6602ZM25.2246 82.1758C23.5579 82.1758 22.1094 81.9219 20.8789 81.4141C19.6484 80.9062 18.6947 80.1185 18.0176 79.0508C17.347 77.9831 17.0117 76.6126 17.0117 74.9395C17.0117 73.2988 17.3568 71.9609 18.0469 70.9258C18.737 69.8841 19.6973 69.1159 20.9277 68.6211C22.1647 68.1263 23.597 67.8789 25.2246 67.8789C26.8522 67.8789 28.2845 68.1263 29.5215 68.6211C30.7585 69.1159 31.722 69.8841 32.4121 70.9258C33.1087 71.9609 33.457 73.2988 33.457 74.9395C33.457 76.6126 33.1217 77.9831 32.4512 79.0508C31.7806 80.1185 30.8301 80.9062 29.5996 81.4141C28.3691 81.9219 26.9108 82.1758 25.2246 82.1758ZM25.2246 77.918C26.1361 77.918 26.7578 77.6445 27.0898 77.0977C27.4219 76.5508 27.5879 75.8314 27.5879 74.9395C27.5879 74.0475 27.4186 73.3411 27.0801 72.8203C26.748 72.2995 26.1296 72.0391 25.2246 72.0391C24.3392 72.0391 23.7272 72.293 23.3887 72.8008C23.0566 73.3086 22.8906 74.0052 22.8906 74.8906C22.8906 75.7956 23.0469 76.528 23.3594 77.0879C23.6784 77.6413 24.3001 77.918 25.2246 77.918ZM42.9102 82.1758C40.4948 82.1758 38.6198 81.5801 37.2852 80.3887C35.9505 79.1908 35.2832 77.3743 35.2832 74.9395V72.3223L34.1113 72.0977V68.25H41.7383V72.0977L40.5664 72.3223V73.9531C40.5664 74.0898 40.5664 74.2266 40.5664 74.3633C40.5729 74.5 40.5762 74.6302 40.5762 74.7539V74.959C40.5762 75.8379 40.7422 76.5345 41.0742 77.0488C41.4128 77.5632 42.0247 77.8203 42.9102 77.8203C43.8021 77.8203 44.4173 77.5632 44.7559 77.0488C45.1009 76.528 45.2734 75.8249 45.2734 74.9395V74.7148C45.2734 74.5977 45.2702 74.474 45.2637 74.3438C45.2637 74.207 45.2637 74.0703 45.2637 73.9336V72.3223L44.0918 72.0977V68.25H50.8691V72.0977L49.6875 72.3223C49.681 72.4199 49.6777 72.5176 49.6777 72.6152C49.6777 72.7064 49.6777 72.7975 49.6777 72.8887V74.9395C49.6777 77.2311 49.1146 79.0117 47.9883 80.2812C46.862 81.5443 45.1693 82.1758 42.9102 82.1758ZM52.0703 82V78.1035L53.2422 77.8789V72.3223L52.0703 72.0977V68.25H59.1211L63.8184 75.6621V72.3418L62.6465 72.0977V68.25H68.5156V72.0977L67.3438 72.3223V77.8789L68.5156 78.1035V82H61.4648L56.7676 74.7832V77.8789L57.9492 78.0938V82H52.0703ZM69.8242 82V78.1035L70.9961 77.8789V71.9902L69.8242 71.7656V68.25H80.5176C81.6569 68.4909 82.6562 68.875 83.5156 69.4023C84.3815 69.9232 85.0553 70.6328 85.5371 71.5312C86.0254 72.4232 86.2695 73.5592 86.2695 74.9395C86.2695 76.3001 86.0384 77.4362 85.5762 78.3477C85.1139 79.2526 84.4596 79.9753 83.6133 80.5156C82.7734 81.0495 81.7806 81.4303 80.6348 81.6582C79.4889 81.8861 78.2357 82 76.875 82H69.8242ZM76.875 77.8789H77.7734C78.4896 77.8789 79.0365 77.7845 79.4141 77.5957C79.7917 77.4069 80.0488 77.0977 80.1855 76.668C80.3223 76.2383 80.3906 75.6621 80.3906 74.9395C80.3906 74.2298 80.3223 73.6602 80.1855 73.2305C80.0488 72.8008 79.7917 72.4883 79.4141 72.293C79.043 72.0911 78.4961 71.9902 77.7734 71.9902H76.875V77.8789ZM86.8555 82V77.4688L87.9883 77.2441L90.6934 68.25H98.2715L100.996 77.2441L102.119 77.4688V82H96.8945L96.4062 79.6855H92.5684L92.0801 82H86.8555ZM93.1641 76.5996H95.8105L94.4824 71.1992L93.1641 76.5996ZM103.34 82V78.1035L104.512 77.8789V72.3223L103.34 72.0977V68.25H111.338C112.184 68.25 113.008 68.2793 113.809 68.3379C114.609 68.3965 115.342 68.5267 116.006 68.7285C116.67 68.9303 117.22 69.2363 117.656 69.6465C118.099 70.0566 118.382 70.6133 118.506 71.3164C118.571 71.681 118.604 72.0814 118.604 72.5176C118.604 73.2533 118.483 73.849 118.242 74.3047C118.008 74.7604 117.682 75.1283 117.266 75.4082C116.849 75.6882 116.364 75.9355 115.811 76.1504C116.136 76.7949 116.569 77.4264 117.109 78.0449C117.65 78.6569 118.148 79.2233 118.604 79.7441V82H112.764C112.367 81.2578 111.979 80.4831 111.602 79.6758C111.23 78.862 110.934 77.9928 110.713 77.0684H110.391V82H103.34ZM110.391 74.4219C111.139 74.4219 111.719 74.3145 112.129 74.0996C112.539 73.8848 112.744 73.403 112.744 72.6543C112.744 71.9056 112.536 71.4206 112.119 71.1992C111.709 70.9779 111.133 70.8672 110.391 70.8672V74.4219ZM119.863 82V78.1035L121.035 77.8789V72.3223L119.863 72.0977V68.25H128.086V72.0977L126.914 72.3223V77.8789L128.086 78.1035V82H119.863ZM129.414 82V78.1035L130.586 77.8789V72.3418L129.414 72.1172V68.25H141.484V73.25H140.146C139.71 72.9245 139.176 72.6641 138.545 72.4688C137.913 72.2734 137.22 72.1758 136.465 72.1758V74.2949L139.17 73.7188V76.502L136.465 75.916V78.0742C137.227 78.0742 137.923 77.9798 138.555 77.791C139.193 77.6022 139.723 77.3385 140.146 77H141.484V82H129.414ZM148.545 82.1758C147.373 82.1758 146.344 82.0977 145.459 81.9414C144.58 81.7852 143.773 81.5215 143.037 81.1504V77.7617H145.801C146.016 78.1003 146.286 78.3932 146.611 78.6406C146.943 78.888 147.347 79.0117 147.822 79.0117C148.285 79.0117 148.594 78.8652 148.75 78.5723C148.913 78.2793 148.994 77.8854 148.994 77.3906C148.187 77.319 147.402 77.1986 146.641 77.0293C145.879 76.86 145.195 76.6061 144.59 76.2676C143.991 75.929 143.512 75.4733 143.154 74.9004C142.803 74.3275 142.627 73.6016 142.627 72.7227C142.627 71.5117 142.894 70.5547 143.428 69.8516C143.968 69.1419 144.707 68.6374 145.645 68.3379C146.589 68.0319 147.66 67.8789 148.857 67.8789C149.997 67.8789 151.012 67.9831 151.904 68.1914C152.803 68.3932 153.626 68.6667 154.375 69.0117V72.4297H151.416C151.234 72.0781 150.996 71.7656 150.703 71.4922C150.41 71.2188 150.039 71.082 149.59 71.082C149.115 71.082 148.792 71.2578 148.623 71.6094C148.454 71.9609 148.369 72.3906 148.369 72.8984C149.287 72.931 150.14 73.0254 150.928 73.1816C151.715 73.3314 152.406 73.582 152.998 73.9336C153.59 74.2786 154.049 74.7539 154.375 75.3594C154.707 75.9648 154.873 76.7363 154.873 77.6738C154.873 78.8522 154.593 79.7669 154.033 80.418C153.473 81.069 152.715 81.5247 151.758 81.7852C150.807 82.0456 149.736 82.1758 148.545 82.1758Z" fill="white"/>
</svg>
